<svg xmlns="http://www.w3.org/2000/svg" viewBox="0 0 100 100">
  <!-- Dot pattern arranged in circular/radial layout -->
  
  <!-- Center dot -->
  <circle cx="50" cy="50" r="6" fill="#00e5cc"/>
  
  <!-- Inner ring - 6 dots -->
  <circle cx="50" cy="35" r="5" fill="#0ea5e9"/>
  <circle cx="63" cy="42.5" r="5" fill="#6366f1"/>
  <circle cx="63" cy="57.5" r="5" fill="#6366f1"/>
  <circle cx="50" cy="65" r="5" fill="#0ea5e9"/>
  <circle cx="37" cy="57.5" r="5" fill="#0ea5e9"/>
  <circle cx="37" cy="42.5" r="5" fill="#0ea5e9"/>
  
  <!-- Outer ring - dots with varying sizes -->
  <circle cx="50" cy="20" r="4" fill="#1e3a5f"/>
  <circle cx="67" cy="26" r="4" fill="#1e3a5f"/>
  <circle cx="78" cy="42" r="3.5" fill="#1e3a5f"/>
  <circle cx="78" cy="58" r="3.5" fill="#1e3a5f"/>
  <circle cx="67" cy="74" r="4" fill="#1e3a5f"/>
  <circle cx="50" cy="80" r="4" fill="#1e3a5f"/>
  <circle cx="33" cy="74" r="4" fill="#1e3a5f"/>
  <circle cx="22" cy="58" r="3.5" fill="#1e3a5f"/>
  <circle cx="22" cy="42" r="3.5" fill="#1e3a5f"/>
  <circle cx="33" cy="26" r="4" fill="#1e3a5f"/>
  
  <!-- Outer accent dots -->
  <circle cx="58" cy="22" r="2.5" fill="#64748b"/>
  <circle cx="75" cy="35" r="2.5" fill="#64748b"/>
  <circle cx="75" cy="65" r="2.5" fill="#64748b"/>
  <circle cx="58" cy="78" r="2.5" fill="#64748b"/>
  <circle cx="42" cy="78" r="2.5" fill="#64748b"/>
  <circle cx="25" cy="65" r="2.5" fill="#64748b"/>
  <circle cx="25" cy="35" r="2.5" fill="#64748b"/>
  <circle cx="42" cy="22" r="2.5" fill="#64748b"/>
</svg>
